<mxfile host="app.diagrams.net" modified="2023-08-02T05:24:09.328Z" agent="Mozilla/5.0 (Windows NT 10.0; Win64; x64) AppleWebKit/537.36 (KHTML, like Gecko) Chrome/115.0.0.0 Safari/537.36" etag="yXD49wZeKu-N7KN6keiY" version="21.6.6" type="device">
  <diagram name="Page-1" id="H7-U3cyGoe9QIvVQEXAk">
    <mxGraphModel dx="880" dy="389" grid="1" gridSize="10" guides="1" tooltips="1" connect="1" arrows="1" fold="1" page="1" pageScale="1" pageWidth="850" pageHeight="1100" math="0" shadow="0">
      <root>
        <mxCell id="0" />
        <mxCell id="1" parent="0" />
        <mxCell id="YWv_gGG3tmVv5mgzMPxt-6" value="" style="edgeStyle=orthogonalEdgeStyle;rounded=0;orthogonalLoop=1;jettySize=auto;html=1;fontSize=16;" edge="1" parent="1" source="YWv_gGG3tmVv5mgzMPxt-1" target="YWv_gGG3tmVv5mgzMPxt-5">
          <mxGeometry relative="1" as="geometry" />
        </mxCell>
        <mxCell id="YWv_gGG3tmVv5mgzMPxt-1" value="Start" style="ellipse;whiteSpace=wrap;html=1;fontSize=16;" vertex="1" parent="1">
          <mxGeometry x="130" y="90" width="90" height="70" as="geometry" />
        </mxCell>
        <mxCell id="YWv_gGG3tmVv5mgzMPxt-8" value="" style="edgeStyle=orthogonalEdgeStyle;rounded=0;orthogonalLoop=1;jettySize=auto;html=1;fontSize=16;" edge="1" parent="1" source="YWv_gGG3tmVv5mgzMPxt-5" target="YWv_gGG3tmVv5mgzMPxt-7">
          <mxGeometry relative="1" as="geometry" />
        </mxCell>
        <mxCell id="YWv_gGG3tmVv5mgzMPxt-5" value="Logged In" style="rounded=1;whiteSpace=wrap;html=1;fontSize=16;" vertex="1" parent="1">
          <mxGeometry x="122.5" y="200" width="105" height="60" as="geometry" />
        </mxCell>
        <mxCell id="YWv_gGG3tmVv5mgzMPxt-10" value="" style="edgeStyle=orthogonalEdgeStyle;rounded=0;orthogonalLoop=1;jettySize=auto;html=1;fontSize=16;" edge="1" parent="1" source="YWv_gGG3tmVv5mgzMPxt-7" target="YWv_gGG3tmVv5mgzMPxt-9">
          <mxGeometry relative="1" as="geometry" />
        </mxCell>
        <mxCell id="YWv_gGG3tmVv5mgzMPxt-7" value="Read a Post" style="whiteSpace=wrap;html=1;rounded=1;fontSize=16;" vertex="1" parent="1">
          <mxGeometry x="123.75" y="290" width="102.5" height="60" as="geometry" />
        </mxCell>
        <mxCell id="YWv_gGG3tmVv5mgzMPxt-12" value="" style="edgeStyle=orthogonalEdgeStyle;rounded=0;orthogonalLoop=1;jettySize=auto;html=1;fontSize=16;" edge="1" parent="1" source="YWv_gGG3tmVv5mgzMPxt-9" target="YWv_gGG3tmVv5mgzMPxt-11">
          <mxGeometry relative="1" as="geometry" />
        </mxCell>
        <mxCell id="YWv_gGG3tmVv5mgzMPxt-19" style="edgeStyle=elbowEdgeStyle;rounded=0;orthogonalLoop=1;jettySize=auto;html=1;exitX=0;exitY=0.5;exitDx=0;exitDy=0;entryX=0;entryY=0.5;entryDx=0;entryDy=0;fontSize=16;" edge="1" parent="1" source="YWv_gGG3tmVv5mgzMPxt-9" target="YWv_gGG3tmVv5mgzMPxt-17">
          <mxGeometry relative="1" as="geometry">
            <mxPoint x="50" y="650" as="targetPoint" />
            <Array as="points">
              <mxPoint x="110" y="540" />
            </Array>
          </mxGeometry>
        </mxCell>
        <mxCell id="YWv_gGG3tmVv5mgzMPxt-9" value="Want to Like" style="rhombus;whiteSpace=wrap;html=1;rounded=1;fontSize=16;" vertex="1" parent="1">
          <mxGeometry x="135" y="380" width="80" height="80" as="geometry" />
        </mxCell>
        <mxCell id="YWv_gGG3tmVv5mgzMPxt-18" value="" style="edgeStyle=orthogonalEdgeStyle;rounded=0;orthogonalLoop=1;jettySize=auto;html=1;fontSize=16;" edge="1" parent="1" source="YWv_gGG3tmVv5mgzMPxt-11" target="YWv_gGG3tmVv5mgzMPxt-17">
          <mxGeometry relative="1" as="geometry" />
        </mxCell>
        <mxCell id="YWv_gGG3tmVv5mgzMPxt-11" value="LIked" style="whiteSpace=wrap;html=1;rounded=1;fontSize=16;" vertex="1" parent="1">
          <mxGeometry x="127.5" y="500" width="95" height="50" as="geometry" />
        </mxCell>
        <mxCell id="YWv_gGG3tmVv5mgzMPxt-21" value="" style="edgeStyle=elbowEdgeStyle;rounded=0;orthogonalLoop=1;jettySize=auto;html=1;fontSize=16;" edge="1" parent="1" source="YWv_gGG3tmVv5mgzMPxt-17" target="YWv_gGG3tmVv5mgzMPxt-20">
          <mxGeometry relative="1" as="geometry" />
        </mxCell>
        <mxCell id="YWv_gGG3tmVv5mgzMPxt-17" value="Want to add coment" style="rhombus;whiteSpace=wrap;html=1;rounded=1;fontSize=16;" vertex="1" parent="1">
          <mxGeometry x="106.25" y="615" width="137.5" height="95" as="geometry" />
        </mxCell>
        <mxCell id="YWv_gGG3tmVv5mgzMPxt-23" value="" style="edgeStyle=elbowEdgeStyle;rounded=0;orthogonalLoop=1;jettySize=auto;html=1;fontSize=16;" edge="1" parent="1" source="YWv_gGG3tmVv5mgzMPxt-20" target="YWv_gGG3tmVv5mgzMPxt-22">
          <mxGeometry relative="1" as="geometry" />
        </mxCell>
        <mxCell id="YWv_gGG3tmVv5mgzMPxt-20" value="Comment Posted" style="whiteSpace=wrap;html=1;rounded=1;fontSize=16;" vertex="1" parent="1">
          <mxGeometry x="132.5" y="740" width="85" height="50" as="geometry" />
        </mxCell>
        <mxCell id="YWv_gGG3tmVv5mgzMPxt-25" style="edgeStyle=orthogonalEdgeStyle;rounded=0;orthogonalLoop=1;jettySize=auto;html=1;fontSize=16;" edge="1" parent="1" source="YWv_gGG3tmVv5mgzMPxt-22">
          <mxGeometry relative="1" as="geometry">
            <mxPoint x="130" y="1010" as="targetPoint" />
            <Array as="points">
              <mxPoint x="175" y="973" />
              <mxPoint x="131" y="973" />
            </Array>
          </mxGeometry>
        </mxCell>
        <mxCell id="YWv_gGG3tmVv5mgzMPxt-28" style="edgeStyle=orthogonalEdgeStyle;rounded=0;orthogonalLoop=1;jettySize=auto;html=1;exitX=0.5;exitY=1;exitDx=0;exitDy=0;fontSize=16;" edge="1" parent="1" source="YWv_gGG3tmVv5mgzMPxt-22">
          <mxGeometry relative="1" as="geometry">
            <mxPoint x="250" y="1010" as="targetPoint" />
          </mxGeometry>
        </mxCell>
        <mxCell id="YWv_gGG3tmVv5mgzMPxt-34" style="edgeStyle=orthogonalEdgeStyle;rounded=0;orthogonalLoop=1;jettySize=auto;html=1;exitX=1;exitY=0.5;exitDx=0;exitDy=0;fontSize=16;" edge="1" parent="1" source="YWv_gGG3tmVv5mgzMPxt-22">
          <mxGeometry relative="1" as="geometry">
            <mxPoint x="390" y="1120" as="targetPoint" />
          </mxGeometry>
        </mxCell>
        <mxCell id="YWv_gGG3tmVv5mgzMPxt-22" value="Want to repost" style="rhombus;whiteSpace=wrap;html=1;rounded=1;fontSize=16;" vertex="1" parent="1">
          <mxGeometry x="127.5" y="840" width="95" height="95" as="geometry" />
        </mxCell>
        <mxCell id="YWv_gGG3tmVv5mgzMPxt-31" style="edgeStyle=orthogonalEdgeStyle;rounded=0;orthogonalLoop=1;jettySize=auto;html=1;fontSize=16;" edge="1" parent="1" source="YWv_gGG3tmVv5mgzMPxt-29">
          <mxGeometry relative="1" as="geometry">
            <mxPoint x="170" y="1130" as="targetPoint" />
          </mxGeometry>
        </mxCell>
        <mxCell id="YWv_gGG3tmVv5mgzMPxt-29" value="Instant Respost" style="rounded=1;whiteSpace=wrap;html=1;fontSize=16;" vertex="1" parent="1">
          <mxGeometry x="80" y="1010" width="90" height="50" as="geometry" />
        </mxCell>
        <mxCell id="YWv_gGG3tmVv5mgzMPxt-32" style="edgeStyle=orthogonalEdgeStyle;rounded=0;orthogonalLoop=1;jettySize=auto;html=1;exitX=0.5;exitY=1;exitDx=0;exitDy=0;fontSize=16;" edge="1" parent="1" source="YWv_gGG3tmVv5mgzMPxt-30">
          <mxGeometry relative="1" as="geometry">
            <mxPoint x="170" y="1130" as="targetPoint" />
          </mxGeometry>
        </mxCell>
        <mxCell id="YWv_gGG3tmVv5mgzMPxt-30" value="Add thoughts" style="rounded=1;whiteSpace=wrap;html=1;fontSize=16;" vertex="1" parent="1">
          <mxGeometry x="200" y="1010" width="90" height="50" as="geometry" />
        </mxCell>
        <mxCell id="YWv_gGG3tmVv5mgzMPxt-81" style="edgeStyle=none;rounded=0;orthogonalLoop=1;jettySize=auto;html=1;entryX=0;entryY=0.5;entryDx=0;entryDy=0;" edge="1" parent="1" source="YWv_gGG3tmVv5mgzMPxt-33" target="YWv_gGG3tmVv5mgzMPxt-38">
          <mxGeometry relative="1" as="geometry" />
        </mxCell>
        <mxCell id="YWv_gGG3tmVv5mgzMPxt-33" value="Reposted" style="rounded=1;whiteSpace=wrap;html=1;fontSize=16;" vertex="1" parent="1">
          <mxGeometry x="130" y="1130" width="90" height="50" as="geometry" />
        </mxCell>
        <mxCell id="YWv_gGG3tmVv5mgzMPxt-42" value="" style="edgeStyle=orthogonalEdgeStyle;rounded=0;orthogonalLoop=1;jettySize=auto;html=1;fontSize=16;" edge="1" parent="1" source="YWv_gGG3tmVv5mgzMPxt-38" target="YWv_gGG3tmVv5mgzMPxt-41">
          <mxGeometry relative="1" as="geometry" />
        </mxCell>
        <mxCell id="YWv_gGG3tmVv5mgzMPxt-47" style="edgeStyle=orthogonalEdgeStyle;rounded=0;orthogonalLoop=1;jettySize=auto;html=1;exitX=0.5;exitY=1;exitDx=0;exitDy=0;entryX=0.5;entryY=1;entryDx=0;entryDy=0;fontSize=16;" edge="1" parent="1" source="YWv_gGG3tmVv5mgzMPxt-38" target="YWv_gGG3tmVv5mgzMPxt-45">
          <mxGeometry relative="1" as="geometry">
            <mxPoint x="780" y="1246" as="targetPoint" />
            <Array as="points">
              <mxPoint x="390" y="1240" />
              <mxPoint x="770" y="1240" />
            </Array>
          </mxGeometry>
        </mxCell>
        <mxCell id="YWv_gGG3tmVv5mgzMPxt-38" value="Share" style="rhombus;whiteSpace=wrap;html=1;fontSize=16;" vertex="1" parent="1">
          <mxGeometry x="350" y="1120" width="80" height="80" as="geometry" />
        </mxCell>
        <mxCell id="YWv_gGG3tmVv5mgzMPxt-44" value="" style="edgeStyle=orthogonalEdgeStyle;rounded=0;orthogonalLoop=1;jettySize=auto;html=1;fontSize=16;" edge="1" parent="1" source="YWv_gGG3tmVv5mgzMPxt-41" target="YWv_gGG3tmVv5mgzMPxt-43">
          <mxGeometry relative="1" as="geometry" />
        </mxCell>
        <mxCell id="YWv_gGG3tmVv5mgzMPxt-41" value="Choose contacts" style="rounded=1;whiteSpace=wrap;html=1;fontSize=16;" vertex="1" parent="1">
          <mxGeometry x="490" y="1135" width="80" height="50" as="geometry" />
        </mxCell>
        <mxCell id="YWv_gGG3tmVv5mgzMPxt-46" value="" style="edgeStyle=orthogonalEdgeStyle;rounded=0;orthogonalLoop=1;jettySize=auto;html=1;fontSize=16;" edge="1" parent="1" source="YWv_gGG3tmVv5mgzMPxt-43" target="YWv_gGG3tmVv5mgzMPxt-45">
          <mxGeometry relative="1" as="geometry" />
        </mxCell>
        <mxCell id="YWv_gGG3tmVv5mgzMPxt-43" value="Sent" style="whiteSpace=wrap;html=1;rounded=1;fontSize=16;" vertex="1" parent="1">
          <mxGeometry x="620" y="1135" width="70" height="50" as="geometry" />
        </mxCell>
        <mxCell id="YWv_gGG3tmVv5mgzMPxt-51" value="" style="edgeStyle=orthogonalEdgeStyle;rounded=0;orthogonalLoop=1;jettySize=auto;html=1;fontSize=16;" edge="1" parent="1" source="YWv_gGG3tmVv5mgzMPxt-45" target="YWv_gGG3tmVv5mgzMPxt-50">
          <mxGeometry relative="1" as="geometry" />
        </mxCell>
        <mxCell id="YWv_gGG3tmVv5mgzMPxt-54" style="edgeStyle=orthogonalEdgeStyle;rounded=0;orthogonalLoop=1;jettySize=auto;html=1;exitX=1;exitY=0.5;exitDx=0;exitDy=0;entryX=1;entryY=0.5;entryDx=0;entryDy=0;fontSize=16;" edge="1" parent="1" source="YWv_gGG3tmVv5mgzMPxt-45" target="YWv_gGG3tmVv5mgzMPxt-52">
          <mxGeometry relative="1" as="geometry">
            <Array as="points">
              <mxPoint x="840" y="1160" />
              <mxPoint x="840" y="930" />
            </Array>
          </mxGeometry>
        </mxCell>
        <mxCell id="YWv_gGG3tmVv5mgzMPxt-45" value="Save Post" style="rhombus;whiteSpace=wrap;html=1;rounded=1;fontSize=16;" vertex="1" parent="1">
          <mxGeometry x="730" y="1120" width="80" height="80" as="geometry" />
        </mxCell>
        <mxCell id="YWv_gGG3tmVv5mgzMPxt-53" value="" style="edgeStyle=orthogonalEdgeStyle;rounded=0;orthogonalLoop=1;jettySize=auto;html=1;fontSize=16;" edge="1" parent="1" source="YWv_gGG3tmVv5mgzMPxt-50" target="YWv_gGG3tmVv5mgzMPxt-52">
          <mxGeometry relative="1" as="geometry" />
        </mxCell>
        <mxCell id="YWv_gGG3tmVv5mgzMPxt-50" value="Saved" style="whiteSpace=wrap;html=1;rounded=1;fontSize=16;" vertex="1" parent="1">
          <mxGeometry x="725" y="1010" width="90" height="50" as="geometry" />
        </mxCell>
        <mxCell id="YWv_gGG3tmVv5mgzMPxt-56" value="" style="edgeStyle=orthogonalEdgeStyle;rounded=0;orthogonalLoop=1;jettySize=auto;html=1;fontSize=16;" edge="1" parent="1" source="YWv_gGG3tmVv5mgzMPxt-52" target="YWv_gGG3tmVv5mgzMPxt-55">
          <mxGeometry relative="1" as="geometry" />
        </mxCell>
        <mxCell id="YWv_gGG3tmVv5mgzMPxt-63" style="edgeStyle=orthogonalEdgeStyle;rounded=0;orthogonalLoop=1;jettySize=auto;html=1;exitX=0;exitY=0.5;exitDx=0;exitDy=0;entryX=0;entryY=0.5;entryDx=0;entryDy=0;fontSize=16;" edge="1" parent="1" source="YWv_gGG3tmVv5mgzMPxt-52" target="YWv_gGG3tmVv5mgzMPxt-57">
          <mxGeometry relative="1" as="geometry">
            <Array as="points">
              <mxPoint x="690" y="930" />
              <mxPoint x="690" y="710" />
            </Array>
          </mxGeometry>
        </mxCell>
        <mxCell id="YWv_gGG3tmVv5mgzMPxt-52" value="Copy Link" style="rhombus;whiteSpace=wrap;html=1;rounded=1;fontSize=16;" vertex="1" parent="1">
          <mxGeometry x="730" y="890" width="80" height="80" as="geometry" />
        </mxCell>
        <mxCell id="YWv_gGG3tmVv5mgzMPxt-58" value="" style="edgeStyle=orthogonalEdgeStyle;rounded=0;orthogonalLoop=1;jettySize=auto;html=1;fontSize=16;" edge="1" parent="1" source="YWv_gGG3tmVv5mgzMPxt-55" target="YWv_gGG3tmVv5mgzMPxt-57">
          <mxGeometry relative="1" as="geometry" />
        </mxCell>
        <mxCell id="YWv_gGG3tmVv5mgzMPxt-55" value="LInk Copy to Clipboard" style="whiteSpace=wrap;html=1;rounded=1;fontSize=16;" vertex="1" parent="1">
          <mxGeometry x="717.5" y="790" width="105" height="50" as="geometry" />
        </mxCell>
        <mxCell id="YWv_gGG3tmVv5mgzMPxt-60" value="" style="edgeStyle=orthogonalEdgeStyle;rounded=0;orthogonalLoop=1;jettySize=auto;html=1;fontSize=16;" edge="1" parent="1" source="YWv_gGG3tmVv5mgzMPxt-57" target="YWv_gGG3tmVv5mgzMPxt-59">
          <mxGeometry relative="1" as="geometry" />
        </mxCell>
        <mxCell id="YWv_gGG3tmVv5mgzMPxt-68" style="edgeStyle=orthogonalEdgeStyle;rounded=0;orthogonalLoop=1;jettySize=auto;html=1;exitX=1;exitY=0.5;exitDx=0;exitDy=0;entryX=1;entryY=0.5;entryDx=0;entryDy=0;fontSize=16;" edge="1" parent="1" source="YWv_gGG3tmVv5mgzMPxt-57" target="YWv_gGG3tmVv5mgzMPxt-64">
          <mxGeometry relative="1" as="geometry">
            <Array as="points">
              <mxPoint x="840" y="710" />
              <mxPoint x="840" y="365" />
            </Array>
          </mxGeometry>
        </mxCell>
        <mxCell id="YWv_gGG3tmVv5mgzMPxt-57" value="DOn&#39;t see" style="rhombus;whiteSpace=wrap;html=1;rounded=1;fontSize=16;" vertex="1" parent="1">
          <mxGeometry x="730" y="670" width="80" height="80" as="geometry" />
        </mxCell>
        <mxCell id="YWv_gGG3tmVv5mgzMPxt-62" value="" style="edgeStyle=orthogonalEdgeStyle;rounded=0;orthogonalLoop=1;jettySize=auto;html=1;fontSize=16;" edge="1" parent="1" source="YWv_gGG3tmVv5mgzMPxt-59" target="YWv_gGG3tmVv5mgzMPxt-61">
          <mxGeometry relative="1" as="geometry" />
        </mxCell>
        <mxCell id="YWv_gGG3tmVv5mgzMPxt-59" value="Give Reasons" style="whiteSpace=wrap;html=1;rounded=1;fontSize=16;" vertex="1" parent="1">
          <mxGeometry x="720" y="565" width="100" height="50" as="geometry" />
        </mxCell>
        <mxCell id="YWv_gGG3tmVv5mgzMPxt-65" value="" style="edgeStyle=orthogonalEdgeStyle;rounded=0;orthogonalLoop=1;jettySize=auto;html=1;fontSize=16;" edge="1" parent="1" source="YWv_gGG3tmVv5mgzMPxt-61" target="YWv_gGG3tmVv5mgzMPxt-64">
          <mxGeometry relative="1" as="geometry" />
        </mxCell>
        <mxCell id="YWv_gGG3tmVv5mgzMPxt-61" value="Submitted" style="whiteSpace=wrap;html=1;rounded=1;fontSize=16;" vertex="1" parent="1">
          <mxGeometry x="720" y="470" width="100" height="50" as="geometry" />
        </mxCell>
        <mxCell id="YWv_gGG3tmVv5mgzMPxt-67" value="" style="edgeStyle=orthogonalEdgeStyle;rounded=0;orthogonalLoop=1;jettySize=auto;html=1;fontSize=16;" edge="1" parent="1" source="YWv_gGG3tmVv5mgzMPxt-64" target="YWv_gGG3tmVv5mgzMPxt-66">
          <mxGeometry relative="1" as="geometry" />
        </mxCell>
        <mxCell id="YWv_gGG3tmVv5mgzMPxt-75" style="edgeStyle=orthogonalEdgeStyle;rounded=0;orthogonalLoop=1;jettySize=auto;html=1;exitX=0;exitY=0.5;exitDx=0;exitDy=0;entryX=0;entryY=0.5;entryDx=0;entryDy=0;fontSize=16;" edge="1" parent="1" source="YWv_gGG3tmVv5mgzMPxt-64" target="YWv_gGG3tmVv5mgzMPxt-71">
          <mxGeometry relative="1" as="geometry">
            <Array as="points">
              <mxPoint x="680" y="365" />
              <mxPoint x="680" y="80" />
            </Array>
          </mxGeometry>
        </mxCell>
        <mxCell id="YWv_gGG3tmVv5mgzMPxt-64" value="Report Post" style="rhombus;whiteSpace=wrap;html=1;rounded=1;fontSize=16;" vertex="1" parent="1">
          <mxGeometry x="730" y="325" width="80" height="80" as="geometry" />
        </mxCell>
        <mxCell id="YWv_gGG3tmVv5mgzMPxt-70" value="" style="edgeStyle=orthogonalEdgeStyle;rounded=0;orthogonalLoop=1;jettySize=auto;html=1;fontSize=16;" edge="1" parent="1" source="YWv_gGG3tmVv5mgzMPxt-66" target="YWv_gGG3tmVv5mgzMPxt-69">
          <mxGeometry relative="1" as="geometry" />
        </mxCell>
        <mxCell id="YWv_gGG3tmVv5mgzMPxt-66" value="Give Reasons" style="whiteSpace=wrap;html=1;rounded=1;fontSize=16;" vertex="1" parent="1">
          <mxGeometry x="730" y="240" width="80" height="40" as="geometry" />
        </mxCell>
        <mxCell id="YWv_gGG3tmVv5mgzMPxt-72" value="" style="edgeStyle=orthogonalEdgeStyle;rounded=0;orthogonalLoop=1;jettySize=auto;html=1;fontSize=16;" edge="1" parent="1" source="YWv_gGG3tmVv5mgzMPxt-69" target="YWv_gGG3tmVv5mgzMPxt-71">
          <mxGeometry relative="1" as="geometry" />
        </mxCell>
        <mxCell id="YWv_gGG3tmVv5mgzMPxt-69" value="Submit/ Reported" style="whiteSpace=wrap;html=1;rounded=1;fontSize=16;" vertex="1" parent="1">
          <mxGeometry x="730" y="150" width="80" height="40" as="geometry" />
        </mxCell>
        <mxCell id="YWv_gGG3tmVv5mgzMPxt-74" value="" style="edgeStyle=orthogonalEdgeStyle;rounded=0;orthogonalLoop=1;jettySize=auto;html=1;fontSize=16;" edge="1" parent="1" source="YWv_gGG3tmVv5mgzMPxt-71" target="YWv_gGG3tmVv5mgzMPxt-73">
          <mxGeometry relative="1" as="geometry" />
        </mxCell>
        <mxCell id="YWv_gGG3tmVv5mgzMPxt-79" style="edgeStyle=orthogonalEdgeStyle;rounded=0;orthogonalLoop=1;jettySize=auto;html=1;exitX=0.5;exitY=0;exitDx=0;exitDy=0;entryX=0.5;entryY=0;entryDx=0;entryDy=0;fontSize=16;" edge="1" parent="1" source="YWv_gGG3tmVv5mgzMPxt-71" target="YWv_gGG3tmVv5mgzMPxt-77">
          <mxGeometry relative="1" as="geometry" />
        </mxCell>
        <mxCell id="YWv_gGG3tmVv5mgzMPxt-71" value="Unfollow" style="rhombus;whiteSpace=wrap;html=1;rounded=1;fontSize=16;" vertex="1" parent="1">
          <mxGeometry x="730" y="40" width="80" height="80" as="geometry" />
        </mxCell>
        <mxCell id="YWv_gGG3tmVv5mgzMPxt-78" value="" style="edgeStyle=orthogonalEdgeStyle;rounded=0;orthogonalLoop=1;jettySize=auto;html=1;fontSize=16;" edge="1" parent="1" source="YWv_gGG3tmVv5mgzMPxt-73" target="YWv_gGG3tmVv5mgzMPxt-77">
          <mxGeometry relative="1" as="geometry" />
        </mxCell>
        <mxCell id="YWv_gGG3tmVv5mgzMPxt-73" value="Unfollowed" style="whiteSpace=wrap;html=1;rounded=1;fontSize=16;" vertex="1" parent="1">
          <mxGeometry x="870" y="55" width="100" height="50" as="geometry" />
        </mxCell>
        <mxCell id="YWv_gGG3tmVv5mgzMPxt-77" value="End" style="ellipse;whiteSpace=wrap;html=1;rounded=1;fontSize=16;" vertex="1" parent="1">
          <mxGeometry x="1010" y="57.5" width="80" height="45" as="geometry" />
        </mxCell>
      </root>
    </mxGraphModel>
  </diagram>
</mxfile>
